<svg width="1921" height="481" viewBox="0 0 1921 481" fill="none" xmlns="http://www.w3.org/2000/svg">
<g clip-path="url(#clip0_1_4)">
<path d="M837.037 13.4828C834.628 33.5592 827.534 58.0525 824.054 58.0525C823.117 58.0525 816.693 55.3757 809.867 52.1634C798.892 47.0774 782.161 41.9914 776.004 41.9914C774.398 41.9914 775.201 44.4006 779.083 52.2974C784.972 64.2094 790.325 82.8135 789.656 89.2379L789.255 93.5209L777.209 94.4579C742.142 97.1347 725.679 98.7409 725.679 99.4101C725.679 99.9455 731.568 106.236 738.796 113.597C752.314 127.249 762.218 141.838 761.549 146.924C761.281 148.798 754.456 154.419 740.402 164.19C729.025 172.087 719.522 179.18 719.255 179.85C718.987 180.519 720.459 181.456 722.601 181.991C736.922 185.07 743.079 187.077 748.165 190.022C755.125 194.171 762.352 200.328 765.966 205.414L768.643 209.161L753.652 224.018C741.071 236.599 738.93 239.143 740.536 240.615C741.607 241.552 749.637 244.63 758.471 247.307C767.304 249.984 775.067 252.795 775.737 253.464C776.406 254.133 775.335 260.959 772.792 270.328C770.517 279.028 769.044 286.657 769.446 287.326C770.115 288.531 792.199 287.46 795.813 286.122C799.159 284.917 800.498 288.128 801.434 298.703C801.97 304.86 802.773 310.08 803.308 310.346C804.379 311.017 819.37 304.591 819.37 303.52C819.37 303.12 817.63 300.308 815.488 297.231C809.331 288.263 805.182 279.028 801.301 266.179C799.427 259.487 796.616 250.519 795.278 246.102C793.805 241.686 792.333 235.663 792.065 232.718C790.192 218.531 789.924 213.311 791.262 213.311C791.932 213.311 792.601 215.586 792.601 218.263C792.735 224.286 795.679 240.347 797.687 246.102C798.49 248.244 801.033 256.141 803.308 263.502C808.796 280.768 816.693 296.294 823.519 303.12C826.731 306.331 833.691 310.883 840.383 313.96L851.626 319.18L851.225 324.132L850.823 329.086L820.976 338.989L791.129 349.027L787.247 361.742C785.106 368.836 779.083 389.85 773.729 408.588C768.375 427.192 763.289 443.253 762.486 444.056C761.683 444.859 759.274 452.087 757.266 460.251C755.259 468.282 753.385 476.045 752.983 477.25C752.314 479.525 757.668 479.659 852.697 479.659C947.859 479.659 953.213 479.525 953.213 477.25C953.213 476.045 946.922 469.085 939.159 461.858C931.396 454.63 925.105 447.938 925.105 446.867C925.105 445.93 929.924 440.978 935.679 435.892C950.402 423.311 950.536 422.508 944.513 407.115C934.341 381.284 912.524 341.398 904.493 333.903C901.95 331.494 901.013 329.218 901.013 325.606C901.013 320.117 902.218 318.78 909.044 316.503C916.004 314.228 922.83 309.009 927.515 302.451C931.262 297.231 932.868 296.294 943.174 293.082C949.465 291.074 954.551 288.931 954.551 288.397C954.551 287.728 952.142 284.248 949.197 280.768C943.442 273.808 942.371 268.856 946.253 267.651C947.457 267.25 952.142 266.58 956.559 266.045C960.975 265.644 964.991 264.974 965.526 264.573C966.731 264.037 959.905 245.032 958.299 244.362C957.763 244.095 957.228 242.89 957.228 241.552C957.228 239.946 959.102 238.741 963.92 237.536C972.218 235.395 992.027 225.892 992.027 224.152C992.027 223.349 989.484 221.475 986.406 219.869C969.274 211.169 955.354 201.131 958.165 199.525C958.7 199.257 963.652 197.651 969.006 196.045C974.36 194.439 983.06 191.093 988.413 188.683C997.649 184.534 1016.65 173.291 1015.85 172.488C1015.32 172.087 979.044 156.561 975.564 155.356C973.958 154.687 973.557 153.884 974.226 152.679C974.761 151.609 983.595 143.043 993.767 133.674C1003.81 124.171 1012.1 116.007 1012.1 115.471C1012.1 114.401 1003.8 112.928 979.312 109.448C970.478 108.11 962.715 106.771 962.18 106.236C961.511 105.701 967.668 93.9225 975.832 80.1367C989.083 57.5172 991.626 52.6988 990.287 52.6988C990.02 52.6988 979.044 56.5803 965.928 61.3986C946.788 68.3585 941.568 69.697 940.23 68.3585C937.285 65.414 934.474 43.3298 934.474 23.521V4.38146L923.633 10.1367C910.918 16.9627 893.92 30.2131 886.023 39.4484C883.078 43.0621 880 46.0067 879.466 46.0067C878.795 46.0067 873.709 39.8499 867.954 32.2208C858.051 19.1042 841.32 0.5 839.446 0.5C838.91 0.5 837.84 6.38909 837.037 13.4828ZM840.784 348.893C835.832 352.775 810.536 419.563 812.543 423.043C813.213 424.247 818.968 429.735 825.392 435.357C831.951 440.978 837.438 446.198 837.706 447.001C837.974 447.804 836.368 450.749 834.092 453.559C831.951 456.37 830.077 457.842 830.077 456.905C830.077 456.102 831.281 453.693 832.888 451.819L835.698 448.206L822.849 436.16C813.882 427.727 810 423.177 810 421.035C810 416.752 825.259 375.796 834.628 354.783C836.903 349.696 838.777 347.153 840.383 347.153C842.524 347.287 842.524 347.421 840.784 348.893Z" fill="#F5F5F5"/>
<path d="M1064.84 188.55C1027.23 195.376 1006.48 210.232 979.583 249.984C973.694 258.55 973.292 259.621 973.292 267.919C973.292 274.343 971.954 280.634 968.474 291.474C962.585 309.811 962.852 314.094 971.283 328.415C974.629 334.037 977.306 339.392 977.306 340.06C977.306 340.863 975.566 343.406 973.292 345.815C966.197 353.444 966.332 365.222 973.694 373.119C977.977 377.536 988.014 381.685 990.691 379.945C991.36 379.544 990.423 376.465 988.683 372.985C986.809 369.639 985.337 365.892 985.471 364.687C985.471 363.349 986.14 363.75 986.943 365.892C989.218 370.844 999.792 387.173 1005.01 393.597C1015.32 406.446 1037.54 419.429 1058.28 424.917C1064.57 426.523 1075.68 427.995 1085.05 428.397C1093.88 428.798 1099.91 429.601 1098.43 430.137C1090.4 432.947 1053.46 427.727 1036.47 421.303L1027.63 417.957L1025.36 421.035C1016.92 432.144 1007.29 457.441 1004.88 474.573L1004.21 479.659H1087.19C1165.62 479.659 1170.17 479.525 1169.51 477.25C1169.1 476.045 1166.96 468.014 1164.82 459.448C1160.14 440.978 1156.39 431.743 1150.37 423.846C1147.96 420.634 1145.95 417.288 1145.95 416.351C1146.08 415.548 1149.43 412.335 1153.58 409.391C1161.07 404.037 1171.38 393.196 1177 384.63C1178.87 381.819 1181.82 379.544 1184.5 378.741C1186.77 378.071 1191.05 375.261 1194 372.584C1203.23 363.75 1204.17 351.704 1196.01 344.61C1193.2 342.201 1192.79 340.997 1193.6 336.714C1194.13 334.037 1194.94 331.494 1195.47 331.092C1196.01 330.691 1197.21 326.809 1198.15 322.392C1199.49 315.969 1199.49 311.017 1198.15 297.231C1197.21 287.862 1195.87 280.233 1195.2 280.233C1194.53 280.233 1194.13 276.485 1194.27 271.8C1194.53 264.439 1193.87 262.164 1189.05 252.795C1182.62 240.079 1173.12 226.16 1163.48 215.72C1157.59 209.295 1153.71 206.752 1138.59 199.257C1127.88 194.037 1116.9 189.62 1111.55 188.55C1100.44 186.14 1077.69 186.14 1064.84 188.55Z" fill="#F5F5F5"/>
<path d="M907.708 334.572C907.708 334.974 910.251 338.721 913.463 342.87C916.674 347.02 921.091 353.578 923.5 357.192C929.791 367.23 944.38 398.549 948.663 410.997C953.347 424.247 952.946 425.184 938.892 437.096C933.538 441.647 929.123 446.466 929.123 447.536C929.123 448.741 935.144 455.165 942.506 462.125C950.537 469.487 955.89 475.51 955.89 477.116C955.89 479.525 956.961 479.659 974.628 479.659C988.682 479.659 993.367 479.257 993.367 477.919C993.367 472.297 960.575 354.381 957.496 348.76C956.961 347.689 948.395 344.878 938.491 342.335C928.586 339.926 918.28 336.981 915.469 335.777C909.983 333.635 907.708 333.234 907.708 334.572Z" fill="#F5F5F5"/>
</g>
<defs>
<clipPath id="clip0_1_4">
<rect width="1920" height="480" fill="white" transform="translate(0.5 0.5)"/>
</clipPath>
</defs>
</svg>
