<svg width="15" height="37" viewBox="0 0 15 37" fill="none" xmlns="http://www.w3.org/2000/svg">
<path d="M4.104 12.529L0.6885 6.64303L4.0905 0.757029H6.777L3.2805 6.64303L6.777 12.529H4.104ZM8.15041 12.529L11.6469 6.64303L8.15041 0.757029H10.8369L14.2389 6.64303L10.8234 12.529H8.15041ZM0.922852 23.405H2.14893V32.1458L2.04346 33.53H0.922852V23.405ZM6.96753 29.9045V30.043C6.96753 30.5615 6.90601 31.0427 6.78296 31.4866C6.65991 31.926 6.47974 32.3083 6.24243 32.6335C6.00513 32.9587 5.71509 33.2114 5.37231 33.3916C5.02954 33.5718 4.63623 33.6619 4.19238 33.6619C3.73975 33.6619 3.34204 33.585 2.99927 33.4312C2.66089 33.2729 2.37524 33.0466 2.14233 32.7522C1.90942 32.4578 1.72266 32.1018 1.58203 31.6843C1.4458 31.2668 1.35132 30.7966 1.29858 30.2737V29.6672C1.35132 29.1399 1.4458 28.6675 1.58203 28.25C1.72266 27.8325 1.90942 27.4766 2.14233 27.1821C2.37524 26.8833 2.66089 26.657 2.99927 26.5032C3.33765 26.345 3.73096 26.2659 4.1792 26.2659C4.62744 26.2659 5.02515 26.3538 5.37231 26.5295C5.71948 26.7009 6.00952 26.947 6.24243 27.2678C6.47974 27.5886 6.65991 27.9731 6.78296 28.4214C6.90601 28.8652 6.96753 29.3596 6.96753 29.9045ZM5.74146 30.043V29.9045C5.74146 29.5486 5.7085 29.2146 5.64258 28.9026C5.57666 28.5862 5.47119 28.3093 5.32617 28.072C5.18115 27.8303 4.98999 27.6414 4.75269 27.5051C4.51538 27.3645 4.22314 27.2942 3.87598 27.2942C3.56836 27.2942 3.30029 27.3469 3.07178 27.4524C2.84766 27.5579 2.65649 27.7007 2.49829 27.8809C2.34009 28.0566 2.21045 28.2588 2.10938 28.4873C2.0127 28.7114 1.94019 28.9443 1.89185 29.186V30.7747C1.96216 31.0823 2.07642 31.3789 2.23462 31.6646C2.39722 31.9458 2.61255 32.1765 2.88062 32.3567C3.15308 32.5369 3.48926 32.627 3.88916 32.627C4.21875 32.627 4.5 32.561 4.73291 32.4292C4.97021 32.293 5.16138 32.1062 5.3064 31.8689C5.45581 31.6316 5.56567 31.3569 5.63599 31.0449C5.7063 30.7329 5.74146 30.3989 5.74146 30.043ZM10.4348 32.7917L12.4189 26.3977H13.7241L10.8633 34.6309C10.7974 34.8066 10.7095 34.9956 10.5996 35.1978C10.4941 35.4043 10.3579 35.5999 10.1909 35.7844C10.0239 35.969 9.82178 36.1184 9.58447 36.2327C9.35156 36.3513 9.07251 36.4106 8.74731 36.4106C8.65063 36.4106 8.52759 36.3975 8.37817 36.3711C8.22876 36.3447 8.12329 36.3228 8.06177 36.3052L8.05518 35.3164C8.09033 35.3208 8.14526 35.3252 8.21997 35.3296C8.29907 35.3384 8.354 35.3428 8.38477 35.3428C8.66162 35.3428 8.89673 35.3054 9.09009 35.2307C9.28345 35.1604 9.44604 35.0396 9.57788 34.8682C9.71411 34.7012 9.83057 34.4705 9.92725 34.176L10.4348 32.7917ZM8.97803 26.3977L10.8303 31.9348L11.1467 33.2202L10.27 33.6685L7.64648 26.3977H8.97803Z" fill="#9E9E9E"/>
</svg>
