<svg width="19" height="18" viewBox="0 0 19 18" fill="none" xmlns="http://www.w3.org/2000/svg">
<path fill-rule="evenodd" clip-rule="evenodd" d="M9.5 0.189941C4.5275 0.189941 0.5 4.21744 0.5 9.18994C0.5 13.1724 3.07625 16.5362 6.65375 17.7287C7.10375 17.8074 7.2725 17.5374 7.2725 17.3012C7.2725 17.0874 7.26125 16.3787 7.26125 15.6249C5 16.0412 4.415 15.0737 4.235 14.5674C4.13375 14.3087 3.695 13.5099 3.3125 13.2962C2.9975 13.1274 2.5475 12.7112 3.30125 12.6999C4.01 12.6887 4.51625 13.3524 4.685 13.6224C5.495 14.9837 6.78875 14.6012 7.30625 14.3649C7.385 13.7799 7.62125 13.3862 7.88 13.1612C5.8775 12.9362 3.785 12.1599 3.785 8.71744C3.785 7.73869 4.13375 6.92869 4.7075 6.29869C4.6175 6.07369 4.3025 5.15119 4.7975 3.91369C4.7975 3.91369 5.55125 3.67744 7.2725 4.83619C7.9925 4.63369 8.7575 4.53244 9.5225 4.53244C10.2875 4.53244 11.0525 4.63369 11.7725 4.83619C13.4938 3.66619 14.2475 3.91369 14.2475 3.91369C14.7425 5.15119 14.4275 6.07369 14.3375 6.29869C14.9113 6.92869 15.26 7.72744 15.26 8.71744C15.26 12.1712 13.1563 12.9362 11.1538 13.1612C11.48 13.4424 11.7613 13.9824 11.7613 14.8262C11.7613 16.0299 11.75 16.9974 11.75 17.3012C11.75 17.5374 11.9188 17.8187 12.3688 17.7287C14.1554 17.1255 15.7079 15.9773 16.8078 14.4455C17.9077 12.9138 18.4995 11.0757 18.5 9.18994C18.5 4.21744 14.4725 0.189941 9.5 0.189941Z" fill="#9E9E9E"/>
</svg>
