<svg width="41" height="40" viewBox="0 0 41 40" fill="none" xmlns="http://www.w3.org/2000/svg">
<path d="M18.1682 0.128414C13.6219 0.725412 9.66872 2.6159 6.50615 5.7157C3.77691 8.38688 1.94474 11.6091 1.02486 15.3595C0.629538 16.9745 0.492696 18.2144 0.500298 20.0283C0.5079 23.3194 1.1541 26.029 2.63656 29.0139C4.11902 31.9836 6.46054 34.6394 9.31904 36.5682C13.1354 39.1399 17.9781 40.3798 22.3494 39.8977C27.367 39.3389 31.3734 37.4484 34.7489 34.0272C39.3103 29.3966 41.2261 23.4114 40.253 16.7372C39.6904 12.8185 37.4477 8.50168 34.536 5.70805C31.784 3.07514 28.477 1.28414 24.8582 0.472836C22.7828 0.0136068 20.1144 -0.131816 18.1682 0.128414ZM22.9653 2.65418C28.4466 3.45782 33.2892 7.00154 35.798 12.0454C36.5582 13.5762 37.1056 15.3059 37.3793 17.005C37.5694 18.1838 37.5694 21.3448 37.3793 22.4393C36.8699 25.3324 35.836 27.7817 34.1027 30.1314C33.8138 30.5294 33.0612 31.3713 32.4378 31.9989L31.305 33.1317L31.3506 33.721L31.3962 34.3027L31.1758 33.4608C30.9173 32.4582 30.6892 31.8994 30.3547 31.4555C30.2179 31.2718 30.1038 31.0805 30.1038 31.0269C30.1114 30.981 30.3015 30.7973 30.5372 30.6289C30.9629 30.3227 31.5483 29.7027 31.8676 29.2129C31.9816 29.0522 32.1413 28.9221 32.301 28.8762C32.681 28.769 33.1144 28.3174 33.2132 27.927C33.3197 27.552 33.2816 27.376 33.0231 26.9857L32.8331 26.7101L33.0003 25.9524C33.1676 25.2023 33.1676 25.187 33.0383 24.0083C32.9699 23.3578 32.9167 22.7302 32.9167 22.623C32.9167 22.3551 32.3314 21.1764 31.8676 20.5258C31.0922 19.4237 30.8033 19.1634 29.6781 18.6124C28.3705 17.9618 27.8916 17.8546 26.5687 17.9082C25.4132 17.9542 24.4401 18.1761 23.5506 18.6047C22.6535 19.0334 21.6348 20.0513 20.6542 21.5132C20.3196 22.003 20.2968 22.0642 20.2968 22.5388C20.2968 22.9062 20.2208 23.2659 20.0231 23.8858C19.6886 24.9344 19.7038 25.1794 20.1828 25.9983C20.3729 26.3198 20.5249 26.6259 20.5249 26.6642C20.5249 26.7101 20.4261 26.8555 20.2968 26.9933C19.8939 27.4296 19.9015 28.1031 20.3196 28.5547C20.5553 28.8073 21.133 29.0446 21.2775 28.945C21.3155 28.9221 21.2851 28.7307 21.2015 28.5241C20.9734 27.9194 21.0342 27.8965 21.3155 28.4858C21.8705 29.6645 22.6231 30.4222 23.8319 31.0192C24.7442 31.4631 25.5272 31.6622 26.6448 31.7157C27.1466 31.7386 27.4886 31.7846 27.405 31.8152C26.9489 31.9759 24.8506 31.6774 23.8851 31.3101L23.3834 31.1187L23.2542 31.2947C22.9729 31.6622 22.4178 32.8791 22.281 33.4225C22.205 33.7363 22.0986 34.3716 22.0454 34.8308C21.8933 36.2621 21.8325 36.3922 21.6729 35.5502C21.4068 34.1573 19.6202 27.5597 19.3998 27.1617C19.3694 27.1005 18.8904 26.9398 18.3354 26.802C17.7805 26.6566 17.1722 26.4882 16.9822 26.4116C16.7998 26.3427 16.6249 26.3045 16.6021 26.3274C16.5793 26.3504 16.7085 26.5723 16.891 26.8173C17.0734 27.0622 17.3319 27.4372 17.4687 27.6439C17.8261 28.2179 18.6547 30.0089 18.898 30.7207C19.1641 31.4785 19.1413 31.532 18.343 32.2132C18.039 32.4734 17.7881 32.7414 17.7881 32.8102C17.7881 32.8714 18.1378 33.2542 18.5635 33.6522C19.3009 34.3486 19.3314 34.3946 19.2705 34.6089L19.2021 34.8385L19.1717 34.6012C19.1565 34.4175 18.974 34.2109 18.3582 33.6215C17.9173 33.2158 17.56 32.8332 17.56 32.7719C17.56 32.7184 17.8337 32.4352 18.1606 32.1443C18.9968 31.4249 19.0044 31.379 18.6623 30.4987C18.0846 29.0216 16.8454 26.7407 16.3892 26.3121C16.2448 26.1743 16.1915 26.0442 16.1915 25.8376C16.1915 25.5238 16.26 25.4472 16.6477 25.3171C17.043 25.187 17.4307 24.8885 17.6968 24.5134C17.9097 24.215 18.0009 24.1614 18.5863 23.9777C18.9436 23.8629 19.2325 23.7404 19.2325 23.7098C19.2325 23.6715 19.0957 23.4726 18.9284 23.2735C18.6015 22.8755 18.5406 22.5924 18.7611 22.5235C18.8296 22.5006 19.0957 22.4622 19.3466 22.4316C19.5974 22.4086 19.8254 22.3704 19.8559 22.3474C19.8863 22.3322 19.8102 22.0413 19.6886 21.7046C19.5594 21.3678 19.4606 21.0463 19.4606 21.0004C19.4606 20.9468 19.6582 20.8473 19.9015 20.7631C20.4413 20.587 21.3611 20.1278 21.3611 20.036C21.3611 19.9978 21.0798 19.814 20.7454 19.6303C20.0839 19.2782 19.415 18.7425 19.5138 18.6506C19.5442 18.62 19.8178 18.5129 20.1067 18.421C20.8366 18.1761 21.612 17.8164 22.2202 17.426C22.5015 17.25 22.7296 17.0893 22.7144 17.0816C22.6839 17.0586 20.6238 16.1708 20.4261 16.1019C20.3348 16.0637 20.312 16.0178 20.35 15.9489C20.3805 15.8876 20.8822 15.3978 21.46 14.862C22.0302 14.3186 22.5015 13.8517 22.5015 13.8211C22.5015 13.7598 22.0302 13.6757 20.639 13.4766C20.1372 13.4002 19.6962 13.3236 19.6658 13.293C19.6278 13.2624 19.9775 12.5888 20.4413 11.8005C21.1939 10.507 21.3383 10.2314 21.2623 10.2314C21.2471 10.2314 20.6237 10.4534 19.8787 10.729C18.7915 11.127 18.495 11.2035 18.419 11.127C18.2518 10.9586 18.0922 9.69568 18.0922 8.56288V7.46842L17.4763 7.79754C16.7542 8.18792 15.7886 8.9456 15.3401 9.47376C15.1728 9.6804 14.998 9.8488 14.9676 9.8488C14.9295 9.8488 14.6406 9.49672 14.3138 9.0604C13.7512 8.31032 12.8009 7.24646 12.6945 7.24646C12.6641 7.24646 12.6032 7.58323 12.5576 7.98888C12.4208 9.13696 12.0178 10.5376 11.8202 10.5376C11.767 10.5376 11.4021 10.3846 11.0143 10.2008C10.391 9.91 9.44064 9.61912 9.09096 9.61912C8.99976 9.61912 9.04536 9.75688 9.26584 10.2085C9.60032 10.8897 9.9044 11.9536 9.8664 12.321L9.8436 12.5658L9.15936 12.6194C7.16756 12.7726 6.23247 12.8644 6.23247 12.9026C6.23247 12.9333 6.56698 13.293 6.9775 13.7139C7.74534 14.4946 8.30791 15.3289 8.2699 15.6198C8.2547 15.7269 7.86698 16.0483 7.06873 16.6071C6.42253 17.0586 5.88276 17.4643 5.86756 17.5026C5.85235 17.5409 5.93598 17.5944 6.05762 17.625C6.87106 17.801 7.22078 17.9159 7.50966 18.0842C7.90498 18.3215 8.31551 18.6736 8.5208 18.9645L8.6728 19.1788L7.82136 20.0283C7.10674 20.7478 6.9851 20.8932 7.07633 20.9774C7.13715 21.031 7.59329 21.207 8.09505 21.3601C8.5968 21.5132 9.03776 21.6739 9.07576 21.7122C9.11376 21.7505 9.05296 22.1408 8.90848 22.6766C8.77928 23.1741 8.6956 23.6103 8.7184 23.6486C8.75648 23.7174 10.0108 23.6562 10.2161 23.5797C10.4062 23.5108 10.4822 23.6945 10.5354 24.2992C10.5658 24.6513 10.6114 24.9498 10.6418 24.965C10.7026 25.0033 11.5541 24.6359 11.5541 24.5747C11.5541 24.5518 11.4553 24.391 11.3337 24.215C10.8243 23.4649 10.4746 22.5235 10.2009 21.1382C10.0185 20.2579 9.9348 19.416 10.0261 19.416C10.0565 19.416 10.1097 19.661 10.1401 19.9594C10.2922 21.6662 11.0752 23.8323 11.7898 24.5518C11.9722 24.7354 12.3676 24.9957 12.7477 25.1717L13.3863 25.4702L13.3634 25.7534L13.3406 26.0366L11.653 26.603L9.9652 27.1694L9.8132 27.6362C9.72952 27.8965 9.37984 29.0828 9.04536 30.2845C8.42194 32.4658 8.23189 33.0169 8.32312 32.3663C8.36113 32.0448 8.34592 32.0142 7.9582 31.5856C5.53306 28.9527 4.03539 25.8682 3.45001 22.2862C3.22954 20.9774 3.25235 18.1761 3.48802 16.8902C4.14942 13.2777 5.60908 10.331 7.99622 7.81285C11.8886 3.71806 17.3395 1.83522 22.9653 2.65418ZM12.6793 27.3913C12.1319 28.5318 11.1588 31.2642 11.2424 31.4096C11.2804 31.4785 11.6074 31.7922 11.9722 32.1137C12.3447 32.4352 12.6565 32.7337 12.6717 32.7873C12.6945 32.8408 12.5804 33.0092 12.4208 33.1699C12.2535 33.346 12.1927 33.3842 12.2687 33.2694C12.5652 32.8026 12.588 32.8638 11.8202 32.152C11.3032 31.6698 11.098 31.4326 11.098 31.3024C11.098 30.9044 12.6032 27.0698 12.7629 27.0698C12.8009 27.0698 12.7629 27.2153 12.6793 27.3913Z" fill="#333333"/>
</svg>
